<svg xmlns="http://www.w3.org/2000/svg" viewBox="0 0 119.77 42.98"><g id="Слой_2" data-name="Слой 2"><g id="Слой_1-2" data-name="Слой 1"><path d="M76.3,43c-.78-.15-1.57-.26-2.33-.47a8.37,8.37,0,0,1-6.25-7,13.4,13.4,0,0,1,.18-5.91,8.48,8.48,0,0,1,7.85-6.52,23.88,23.88,0,0,1,5.14.29,7.9,7.9,0,0,1,5.42,3.91c3.22-5.95,15.35-5.93,18.14,1.18V23.36h6V37.8h9.37v4.72H104.55v-5c-.19.15-.27.18-.3.24a8.4,8.4,0,0,1-7.13,5,1.89,1.89,0,0,0-.45.17h-2.8a1.07,1.07,0,0,0-.27-.12,8.68,8.68,0,0,1-7.26-4.3,8.38,8.38,0,0,1-5,3.92c-.72.2-1.46.34-2.2.5ZM73.45,32.7c0,.83,0,1.4.11,2A7.12,7.12,0,0,0,73.9,36a3.61,3.61,0,0,0,4,2.45,3.26,3.26,0,0,0,3.37-2.8,18.74,18.74,0,0,0,.17-4.73,3.9,3.9,0,0,0-7.73-.12C73.55,31.51,73.51,32.24,73.45,32.7ZM99.24,33l-.1,0c0-.56,0-1.13-.09-1.69a3.93,3.93,0,0,0-3.35-3.77,3.65,3.65,0,0,0-4,2.05,8.83,8.83,0,0,0,0,6.86,3.45,3.45,0,0,0,3.74,2.06,3.25,3.25,0,0,0,3.29-2.39A26.85,26.85,0,0,0,99.24,33Z"/><path d="M0,36.21l5.65-.3c.08.25.15.53.23.8A3.33,3.33,0,0,0,10.35,39a1.94,1.94,0,0,0,1.44-1.72,1.72,1.72,0,0,0-1.2-1.77c-1.17-.44-2.42-.67-3.61-1.08a20.11,20.11,0,0,1-3.74-1.53,5,5,0,0,1,0-8.63C5.13,23.07,7.22,23,9.31,23a12.87,12.87,0,0,1,2.47.26c3.22.63,4.59,2.06,5.17,5.44-1.76.12-3.5.25-5.25.31-.16,0-.41-.35-.5-.59a2.85,2.85,0,0,0-3.91-1.64A1.74,1.74,0,0,0,6.38,28a1.63,1.63,0,0,0,1,1.18c1.27.45,2.62.68,3.92,1.06a22.56,22.56,0,0,1,2.9,1,5.21,5.21,0,0,1,3.41,4.41,5.78,5.78,0,0,1-2.72,5.79,17.1,17.1,0,0,1-3.59,1.33,6.68,6.68,0,0,1-.86.2h-3c-.32-.06-.63-.15-.95-.19-2.23-.31-4.22-1-5.33-3.16A30,30,0,0,1,0,36.81Z"/><path d="M30.36,43c-.55-.11-1.09-.25-1.64-.33-3.65-.53-6.09-3.66-6.72-7a14.26,14.26,0,0,1,.16-6.2,8.18,8.18,0,0,1,7.5-6.36,20.38,20.38,0,0,1,4.75.19c3.19.52,5,2.66,6,5.66-1.6.36-3.14.73-4.69,1a.79.79,0,0,1-.7-.3,3.55,3.55,0,0,0-4.1-2.22c-1.61.26-2.81,1.56-3,3.71a18,18,0,0,0,.21,4.63,3,3,0,0,0,2.86,2.6c2,.17,3.08-.39,3.84-2,.25-.52.44-1.08.68-1.68l5,1.52a7.57,7.57,0,0,1-6.59,6.51c-.26,0-.5.13-.76.19Z"/><path d="M1.48.54c4.28,0,8.5-.13,12.71,0a4.48,4.48,0,0,1,4.6,4.22c.28,3.12-1,5.22-3.75,6.1l-.72.25a6.36,6.36,0,0,1,3.57,3.57c.83,1.6,1.66,3.21,2.55,4.95-2.2,0-4.25,0-6.3,0a1.23,1.23,0,0,1-.76-.6c-1.07-1.91-2.11-3.83-3.15-5.75a2.52,2.52,0,0,0-2.8-1.43v7.75H1.48Zm6,7.71c1.42-.11,2.74-.15,4-.34a1.6,1.6,0,0,0,1.37-1.79A1.54,1.54,0,0,0,11.52,4.4c-1.33-.18-2.68-.19-4.08-.27Z"/><path d="M45.32,23.3h5.79V30H57.7V23.34h5.95V42.52H57.77V34.89H51.2v7.62H45.32Z"/><path d="M59.68,13.31l5.61-.38a3.46,3.46,0,0,1,.2.47,3.3,3.3,0,0,0,4.38,2.68,2,2,0,0,0,1.6-1.71,1.71,1.71,0,0,0-1.25-1.84c-1.33-.47-2.74-.74-4.08-1.23a16.38,16.38,0,0,1-3.59-1.62,5,5,0,0,1-.07-8.07C64.75,0,67.37-.11,70,.07a12.31,12.31,0,0,1,2.16.35c2.62.66,4,2.32,4.42,5.32l-5.55.35a2.74,2.74,0,0,0-2.34-2.46,3.36,3.36,0,0,0-1,0C66.88,3.71,66.08,4,66,5s.71,1.25,1.46,1.47c2,.58,4.06,1,6,1.72,2.86,1.07,4.28,3.53,3.78,6.13a6.26,6.26,0,0,1-4.74,5.2,14.77,14.77,0,0,1-8.36-.11C61.23,18.5,60.15,16.2,59.68,13.31Z"/></g></g></svg>