<svg xmlns="http://www.w3.org/2000/svg" xmlns:xlink="http://www.w3.org/1999/xlink" viewBox="0 0 63.46 61.55"><defs><style>.cls-1{fill:none;}.cls-2{clip-path:url(#clip-path);}.cls-3,.cls-4{fill:#010101;}.cls-3{fill-rule:evenodd;}</style><clipPath id="clip-path" transform="translate(-0.01 -1.32)"><rect class="cls-1" width="63.46" height="63.46"/></clipPath></defs><g id="Слой_2" data-name="Слой 2"><g id="Слой_1-2" data-name="Слой 1"><g class="cls-2"><path class="cls-3" d="M31.73,1.32A31.83,31.83,0,0,0,11.18,8.85a31.49,31.49,0,0,0,10.52,54c1.57.29,2.17-.68,2.17-1.51s0-3.24-.05-5.88C15,57.33,13.13,51.7,13.13,51.7,11.69,48,9.61,47.08,9.61,47.08c-2.88-1.95.22-1.92.22-1.92a6.67,6.67,0,0,1,4.86,3.26c2.83,4.82,7.43,3.42,9.23,2.61a6.73,6.73,0,0,1,2-4.22c-7-.8-14.46-3.5-14.46-15.59a12.2,12.2,0,0,1,3.27-8.47,11.32,11.32,0,0,1,.31-8.36s2.66-.85,8.73,3.23a30.37,30.37,0,0,1,15.89,0c6.06-4.08,8.72-3.23,8.72-3.23a11.33,11.33,0,0,1,.31,8.36A12.13,12.13,0,0,1,52,31.23C52,43.34,44.56,46,37.5,46.79c1.13,1,2.15,2.9,2.15,5.85,0,4.22,0,7.62,0,8.66,0,.84.57,1.82,2.18,1.51a31.48,31.48,0,0,0,10.51-54A31.83,31.83,0,0,0,31.74,1.32Z" transform="translate(-0.01 -1.32)"/><path class="cls-4" d="M12,46.63a.39.39,0,0,1-.53.09c-.2-.11-.36-.31-.28-.48a.37.37,0,0,1,.52-.09C11.94,46.26,12.1,46.47,12,46.63Z" transform="translate(-0.01 -1.32)"/><path class="cls-4" d="M13.3,48.05a.47.47,0,0,1-.35,0,.52.52,0,0,1-.3-.18c-.2-.22-.24-.53-.09-.66a.49.49,0,0,1,.65.14C13.41,47.61,13.46,47.92,13.3,48.05Z" transform="translate(-0.01 -1.32)"/><path class="cls-4" d="M14.56,49.86c-.2.14-.53,0-.71-.27a.33.33,0,0,1-.12-.17.45.45,0,0,1,0-.2.52.52,0,0,1,0-.21.38.38,0,0,1,.12-.17c.19-.13.52,0,.71.27A.58.58,0,0,1,14.56,49.86Z" transform="translate(-0.01 -1.32)"/><path class="cls-4" d="M16.25,51.62c-.17.19-.52.14-.81-.12s-.36-.62-.19-.8.53-.14.83.12S16.44,51.43,16.25,51.62Z" transform="translate(-0.01 -1.32)"/><path class="cls-4" d="M18.63,52.64c-.08.25-.43.36-.79.25s-.59-.39-.53-.64.43-.37.8-.25S18.7,52.39,18.63,52.64Z" transform="translate(-0.01 -1.32)"/><path class="cls-4" d="M21.23,52.82c0,.26-.3.48-.67.48s-.69-.2-.69-.46.29-.47.67-.48S21.23,52.56,21.23,52.82Z" transform="translate(-0.01 -1.32)"/><path class="cls-4" d="M23.65,52.42c0,.26-.22.52-.6.58s-.71-.08-.75-.33.22-.53.59-.6S23.6,52.16,23.65,52.42Z" transform="translate(-0.01 -1.32)"/></g></g></g></svg>